<?xml version="1.0" encoding="UTF-8"?>
<!DOCTYPE svg PUBLIC "-//W3C//DTD SVG 1.1//EN" "http://www.w3.org/Graphics/SVG/1.1/DTD/svg11.dtd">
<!-- Creator: CorelDRAW 2017 -->
<svg xmlns="http://www.w3.org/2000/svg" xml:space="preserve" width="180mm" height="57mm" version="1.1" style="shape-rendering:geometricPrecision; text-rendering:geometricPrecision; image-rendering:optimizeQuality; fill-rule:evenodd; clip-rule:evenodd"
viewBox="0 0 18000 5700"
 xmlns:xlink="http://www.w3.org/1999/xlink">
 <defs>
  <style type="text/css">
   <![CDATA[
    .fil1 {fill:#FF6600}
    .fil0 {fill:blue;fill-rule:nonzero}
   ]]>
  </style>
 </defs>
 <g id="Layer_x0020_1">
  <metadata id="CorelCorpID_0Corel-Layer"/>
  <g id="_2265761975344">
   <path class="fil0" d="M8837 3880l363 99c-6,78 -13,145 -23,202 -51,299 -200,537 -446,715 -247,178 -552,267 -915,267 -911,0 -1280,-512 -1106,-1535 83,-485 283,-879 600,-1181 317,-302 688,-453 1114,-453 665,0 943,319 834,958l-412 175c21,-90 36,-160 44,-210 77,-453 -66,-679 -430,-679 -385,0 -660,481 -824,1442 -141,826 4,1239 434,1239 178,0 338,-71 480,-211 142,-141 231,-317 267,-528 12,-68 18,-167 19,-299zm2303 -1891c894,0 1251,529 1071,1587 -180,1058 -726,1587 -1636,1587 -911,0 -1274,-541 -1089,-1623 176,-1034 728,-1551 1655,-1551zm-66 244c-168,0 -298,93 -389,278 -91,185 -181,540 -271,1065 -90,525 -120,880 -92,1065 28,185 126,278 294,278 168,0 298,-93 389,-278 91,-185 181,-540 271,-1065 89,-524 120,-878 92,-1064 -27,-186 -126,-279 -294,-279zm1271 2879l524 -3072 1271 0c903,0 1267,513 1092,1539 -174,1022 -729,1533 -1665,1533l-1222 0zm932 -253l234 0c213,0 377,-93 491,-278 114,-186 212,-521 295,-1006 83,-484 99,-820 49,-1004 -50,-185 -183,-277 -398,-277l-234 0 -437 2566zm4600 -2819l-53 309 -1101 0 -159 930 926 0 -53 309 -926 0 -207 1216 1290 0 -53 309 -2179 0 524 -3072 1990 0z"/>
   <path class="fil1" d="M738 2517c160,-1040 1059,-1836 2144,-1836 509,0 977,176 1348,469 152,121 288,262 403,418l-1750 1750 -1062 -1062 -418 418 1480 1480 2041 -2041 451 -451c-88,-184 -195,-357 -320,-515 -120,-153 -256,-293 -405,-417 -479,-400 -1095,-640 -1767,-640 -1524,0 -2760,1236 -2760,2760 0,1524 1236,2760 2760,2760 1524,0 2760,-1236 2760,-2760 0,-197 -21,-389 -60,-574l-531 531c0,14 1,29 1,43 0,1198 -971,2169 -2169,2169 -1198,0 -2169,-971 -2169,-2169 0,-14 0,-29 1,-43 2,-98 10,-195 25,-290l0 0z"/>
  </g>
 </g>
</svg>
